<mxfile host="65bd71144e">
    <diagram id="1J2ACmal5fj1HF8TmCzY" name="lunch-model">
        <mxGraphModel dx="1189" dy="605" grid="1" gridSize="10" guides="1" tooltips="1" connect="1" arrows="1" fold="1" page="1" pageScale="1" pageWidth="827" pageHeight="1169" math="0" shadow="0">
            <root>
                <mxCell id="bAnHZ9TJ5kblqX2mOxMd-0"/>
                <mxCell id="bAnHZ9TJ5kblqX2mOxMd-1" parent="bAnHZ9TJ5kblqX2mOxMd-0"/>
                <mxCell id="vvZpn0ASTJJiLZvfq02m-1" value="Year" style="swimlane;fontStyle=1;childLayout=stackLayout;horizontal=1;startSize=30;horizontalStack=0;resizeParent=1;resizeParentMax=0;resizeLast=0;collapsible=1;marginBottom=0;" vertex="1" parent="bAnHZ9TJ5kblqX2mOxMd-1">
                    <mxGeometry x="140" y="60" width="140" height="90" as="geometry"/>
                </mxCell>
                <mxCell id="vvZpn0ASTJJiLZvfq02m-2" value="id    String" style="text;strokeColor=none;fillColor=none;align=left;verticalAlign=middle;spacingLeft=4;spacingRight=4;overflow=hidden;points=[[0,0.5],[1,0.5]];portConstraint=eastwest;rotatable=0;" vertex="1" parent="vvZpn0ASTJJiLZvfq02m-1">
                    <mxGeometry y="30" width="140" height="30" as="geometry"/>
                </mxCell>
                <mxCell id="vvZpn0ASTJJiLZvfq02m-3" value="weeks Week" style="text;strokeColor=none;fillColor=none;align=left;verticalAlign=middle;spacingLeft=4;spacingRight=4;overflow=hidden;points=[[0,0.5],[1,0.5]];portConstraint=eastwest;rotatable=0;" vertex="1" parent="vvZpn0ASTJJiLZvfq02m-1">
                    <mxGeometry y="60" width="140" height="30" as="geometry"/>
                </mxCell>
                <mxCell id="vvZpn0ASTJJiLZvfq02m-5" value="Week" style="swimlane;fontStyle=1;childLayout=stackLayout;horizontal=1;startSize=30;horizontalStack=0;resizeParent=1;resizeParentMax=0;resizeLast=0;collapsible=1;marginBottom=0;" vertex="1" parent="bAnHZ9TJ5kblqX2mOxMd-1">
                    <mxGeometry x="360" y="150" width="140" height="210" as="geometry"/>
                </mxCell>
                <mxCell id="vvZpn0ASTJJiLZvfq02m-6" value="id    String" style="text;strokeColor=none;fillColor=none;align=left;verticalAlign=middle;spacingLeft=4;spacingRight=4;overflow=hidden;points=[[0,0.5],[1,0.5]];portConstraint=eastwest;rotatable=0;" vertex="1" parent="vvZpn0ASTJJiLZvfq02m-5">
                    <mxGeometry y="30" width="140" height="30" as="geometry"/>
                </mxCell>
                <mxCell id="vvZpn0ASTJJiLZvfq02m-7" value="week Int" style="text;strokeColor=none;fillColor=none;align=left;verticalAlign=middle;spacingLeft=4;spacingRight=4;overflow=hidden;points=[[0,0.5],[1,0.5]];portConstraint=eastwest;rotatable=0;" vertex="1" parent="vvZpn0ASTJJiLZvfq02m-5">
                    <mxGeometry y="60" width="140" height="30" as="geometry"/>
                </mxCell>
                <mxCell id="vvZpn0ASTJJiLZvfq02m-8" value="year Year" style="text;strokeColor=none;fillColor=none;align=left;verticalAlign=middle;spacingLeft=4;spacingRight=4;overflow=hidden;points=[[0,0.5],[1,0.5]];portConstraint=eastwest;rotatable=0;" vertex="1" parent="vvZpn0ASTJJiLZvfq02m-5">
                    <mxGeometry y="90" width="140" height="30" as="geometry"/>
                </mxCell>
                <mxCell id="vvZpn0ASTJJiLZvfq02m-9" value="yearId String" style="text;strokeColor=none;fillColor=none;align=left;verticalAlign=middle;spacingLeft=4;spacingRight=4;overflow=hidden;points=[[0,0.5],[1,0.5]];portConstraint=eastwest;rotatable=0;" vertex="1" parent="vvZpn0ASTJJiLZvfq02m-5">
                    <mxGeometry y="120" width="140" height="30" as="geometry"/>
                </mxCell>
                <mxCell id="vvZpn0ASTJJiLZvfq02m-10" value="days Day" style="text;strokeColor=none;fillColor=none;align=left;verticalAlign=middle;spacingLeft=4;spacingRight=4;overflow=hidden;points=[[0,0.5],[1,0.5]];portConstraint=eastwest;rotatable=0;" vertex="1" parent="vvZpn0ASTJJiLZvfq02m-5">
                    <mxGeometry y="150" width="140" height="30" as="geometry"/>
                </mxCell>
                <mxCell id="vvZpn0ASTJJiLZvfq02m-11" value="overrides Override" style="text;strokeColor=none;fillColor=none;align=left;verticalAlign=middle;spacingLeft=4;spacingRight=4;overflow=hidden;points=[[0,0.5],[1,0.5]];portConstraint=eastwest;rotatable=0;" vertex="1" parent="vvZpn0ASTJJiLZvfq02m-5">
                    <mxGeometry y="180" width="140" height="30" as="geometry"/>
                </mxCell>
                <mxCell id="vvZpn0ASTJJiLZvfq02m-12" value="Day" style="swimlane;fontStyle=1;childLayout=stackLayout;horizontal=1;startSize=30;horizontalStack=0;resizeParent=1;resizeParentMax=0;resizeLast=0;collapsible=1;marginBottom=0;" vertex="1" parent="bAnHZ9TJ5kblqX2mOxMd-1">
                    <mxGeometry x="140" y="270" width="140" height="210" as="geometry"/>
                </mxCell>
                <mxCell id="vvZpn0ASTJJiLZvfq02m-13" value="id    String" style="text;strokeColor=none;fillColor=none;align=left;verticalAlign=middle;spacingLeft=4;spacingRight=4;overflow=hidden;points=[[0,0.5],[1,0.5]];portConstraint=eastwest;rotatable=0;" vertex="1" parent="vvZpn0ASTJJiLZvfq02m-12">
                    <mxGeometry y="30" width="140" height="30" as="geometry"/>
                </mxCell>
                <mxCell id="vvZpn0ASTJJiLZvfq02m-14" value="name    String" style="text;strokeColor=none;fillColor=none;align=left;verticalAlign=middle;spacingLeft=4;spacingRight=4;overflow=hidden;points=[[0,0.5],[1,0.5]];portConstraint=eastwest;rotatable=0;" vertex="1" parent="vvZpn0ASTJJiLZvfq02m-12">
                    <mxGeometry y="60" width="140" height="30" as="geometry"/>
                </mxCell>
                <mxCell id="vvZpn0ASTJJiLZvfq02m-15" value="weekId String" style="text;strokeColor=none;fillColor=none;align=left;verticalAlign=middle;spacingLeft=4;spacingRight=4;overflow=hidden;points=[[0,0.5],[1,0.5]];portConstraint=eastwest;rotatable=0;" vertex="1" parent="vvZpn0ASTJJiLZvfq02m-12">
                    <mxGeometry y="90" width="140" height="30" as="geometry"/>
                </mxCell>
                <mxCell id="vvZpn0ASTJJiLZvfq02m-16" value="employeeId String" style="text;strokeColor=none;fillColor=none;align=left;verticalAlign=middle;spacingLeft=4;spacingRight=4;overflow=hidden;points=[[0,0.5],[1,0.5]];portConstraint=eastwest;rotatable=0;" vertex="1" parent="vvZpn0ASTJJiLZvfq02m-12">
                    <mxGeometry y="120" width="140" height="30" as="geometry"/>
                </mxCell>
                <mxCell id="vvZpn0ASTJJiLZvfq02m-17" value="week Week" style="text;strokeColor=none;fillColor=none;align=left;verticalAlign=middle;spacingLeft=4;spacingRight=4;overflow=hidden;points=[[0,0.5],[1,0.5]];portConstraint=eastwest;rotatable=0;" vertex="1" parent="vvZpn0ASTJJiLZvfq02m-12">
                    <mxGeometry y="150" width="140" height="30" as="geometry"/>
                </mxCell>
                <mxCell id="vvZpn0ASTJJiLZvfq02m-18" value="employee Employee" style="text;strokeColor=none;fillColor=none;align=left;verticalAlign=middle;spacingLeft=4;spacingRight=4;overflow=hidden;points=[[0,0.5],[1,0.5]];portConstraint=eastwest;rotatable=0;" vertex="1" parent="vvZpn0ASTJJiLZvfq02m-12">
                    <mxGeometry y="180" width="140" height="30" as="geometry"/>
                </mxCell>
                <mxCell id="vvZpn0ASTJJiLZvfq02m-19" value="Employee" style="swimlane;fontStyle=1;childLayout=stackLayout;horizontal=1;startSize=30;horizontalStack=0;resizeParent=1;resizeParentMax=0;resizeLast=0;collapsible=1;marginBottom=0;" vertex="1" parent="bAnHZ9TJ5kblqX2mOxMd-1">
                    <mxGeometry x="360" y="400" width="140" height="150" as="geometry"/>
                </mxCell>
                <mxCell id="vvZpn0ASTJJiLZvfq02m-20" value="id    String" style="text;strokeColor=none;fillColor=none;align=left;verticalAlign=middle;spacingLeft=4;spacingRight=4;overflow=hidden;points=[[0,0.5],[1,0.5]];portConstraint=eastwest;rotatable=0;" vertex="1" parent="vvZpn0ASTJJiLZvfq02m-19">
                    <mxGeometry y="30" width="140" height="30" as="geometry"/>
                </mxCell>
                <mxCell id="vvZpn0ASTJJiLZvfq02m-21" value="name String" style="text;strokeColor=none;fillColor=none;align=left;verticalAlign=middle;spacingLeft=4;spacingRight=4;overflow=hidden;points=[[0,0.5],[1,0.5]];portConstraint=eastwest;rotatable=0;" vertex="1" parent="vvZpn0ASTJJiLZvfq02m-19">
                    <mxGeometry y="60" width="140" height="30" as="geometry"/>
                </mxCell>
                <mxCell id="vvZpn0ASTJJiLZvfq02m-22" value="rules String" style="text;strokeColor=none;fillColor=none;align=left;verticalAlign=middle;spacingLeft=4;spacingRight=4;overflow=hidden;points=[[0,0.5],[1,0.5]];portConstraint=eastwest;rotatable=0;" vertex="1" parent="vvZpn0ASTJJiLZvfq02m-19">
                    <mxGeometry y="90" width="140" height="30" as="geometry"/>
                </mxCell>
                <mxCell id="vvZpn0ASTJJiLZvfq02m-23" value="days Day" style="text;strokeColor=none;fillColor=none;align=left;verticalAlign=middle;spacingLeft=4;spacingRight=4;overflow=hidden;points=[[0,0.5],[1,0.5]];portConstraint=eastwest;rotatable=0;" vertex="1" parent="vvZpn0ASTJJiLZvfq02m-19">
                    <mxGeometry y="120" width="140" height="30" as="geometry"/>
                </mxCell>
                <mxCell id="vvZpn0ASTJJiLZvfq02m-26" value="Override" style="swimlane;fontStyle=1;childLayout=stackLayout;horizontal=1;startSize=30;horizontalStack=0;resizeParent=1;resizeParentMax=0;resizeLast=0;collapsible=1;marginBottom=0;" vertex="1" parent="bAnHZ9TJ5kblqX2mOxMd-1">
                    <mxGeometry x="570" y="180" width="140" height="180" as="geometry"/>
                </mxCell>
                <mxCell id="vvZpn0ASTJJiLZvfq02m-27" value="id    String" style="text;strokeColor=none;fillColor=none;align=left;verticalAlign=middle;spacingLeft=4;spacingRight=4;overflow=hidden;points=[[0,0.5],[1,0.5]];portConstraint=eastwest;rotatable=0;" vertex="1" parent="vvZpn0ASTJJiLZvfq02m-26">
                    <mxGeometry y="30" width="140" height="30" as="geometry"/>
                </mxCell>
                <mxCell id="vvZpn0ASTJJiLZvfq02m-28" value="employee String" style="text;strokeColor=none;fillColor=none;align=left;verticalAlign=middle;spacingLeft=4;spacingRight=4;overflow=hidden;points=[[0,0.5],[1,0.5]];portConstraint=eastwest;rotatable=0;" vertex="1" parent="vvZpn0ASTJJiLZvfq02m-26">
                    <mxGeometry y="60" width="140" height="30" as="geometry"/>
                </mxCell>
                <mxCell id="vvZpn0ASTJJiLZvfq02m-29" value="day String" style="text;strokeColor=none;fillColor=none;align=left;verticalAlign=middle;spacingLeft=4;spacingRight=4;overflow=hidden;points=[[0,0.5],[1,0.5]];portConstraint=eastwest;rotatable=0;" vertex="1" parent="vvZpn0ASTJJiLZvfq02m-26">
                    <mxGeometry y="90" width="140" height="30" as="geometry"/>
                </mxCell>
                <mxCell id="vvZpn0ASTJJiLZvfq02m-31" value="weekId String" style="text;strokeColor=none;fillColor=none;align=left;verticalAlign=middle;spacingLeft=4;spacingRight=4;overflow=hidden;points=[[0,0.5],[1,0.5]];portConstraint=eastwest;rotatable=0;" vertex="1" parent="vvZpn0ASTJJiLZvfq02m-26">
                    <mxGeometry y="120" width="140" height="30" as="geometry"/>
                </mxCell>
                <mxCell id="vvZpn0ASTJJiLZvfq02m-30" value="week Week" style="text;strokeColor=none;fillColor=none;align=left;verticalAlign=middle;spacingLeft=4;spacingRight=4;overflow=hidden;points=[[0,0.5],[1,0.5]];portConstraint=eastwest;rotatable=0;" vertex="1" parent="vvZpn0ASTJJiLZvfq02m-26">
                    <mxGeometry y="150" width="140" height="30" as="geometry"/>
                </mxCell>
                <mxCell id="vvZpn0ASTJJiLZvfq02m-33" style="edgeStyle=orthogonalEdgeStyle;html=1;exitX=0;exitY=0.5;exitDx=0;exitDy=0;entryX=1;entryY=0.5;entryDx=0;entryDy=0;endArrow=ERoneToMany;endFill=0;" edge="1" parent="bAnHZ9TJ5kblqX2mOxMd-1" source="vvZpn0ASTJJiLZvfq02m-21" target="vvZpn0ASTJJiLZvfq02m-12">
                    <mxGeometry relative="1" as="geometry"/>
                </mxCell>
                <mxCell id="vvZpn0ASTJJiLZvfq02m-35" style="edgeStyle=orthogonalEdgeStyle;html=1;exitX=0;exitY=0.5;exitDx=0;exitDy=0;entryX=0.5;entryY=0;entryDx=0;entryDy=0;endArrow=ERoneToMany;endFill=0;elbow=vertical;" edge="1" parent="bAnHZ9TJ5kblqX2mOxMd-1" source="vvZpn0ASTJJiLZvfq02m-8" target="vvZpn0ASTJJiLZvfq02m-12">
                    <mxGeometry relative="1" as="geometry"/>
                </mxCell>
                <mxCell id="vvZpn0ASTJJiLZvfq02m-36" style="edgeStyle=orthogonalEdgeStyle;html=1;exitX=1;exitY=0.5;exitDx=0;exitDy=0;entryX=0.5;entryY=0;entryDx=0;entryDy=0;endArrow=ERoneToMany;endFill=0;elbow=vertical;" edge="1" parent="bAnHZ9TJ5kblqX2mOxMd-1" source="vvZpn0ASTJJiLZvfq02m-2" target="vvZpn0ASTJJiLZvfq02m-5">
                    <mxGeometry relative="1" as="geometry"/>
                </mxCell>
                <mxCell id="vvZpn0ASTJJiLZvfq02m-37" style="edgeStyle=orthogonalEdgeStyle;html=1;exitX=1;exitY=0.5;exitDx=0;exitDy=0;entryX=0;entryY=0.5;entryDx=0;entryDy=0;endArrow=ERoneToMany;endFill=0;elbow=vertical;" edge="1" parent="bAnHZ9TJ5kblqX2mOxMd-1" source="vvZpn0ASTJJiLZvfq02m-8" target="vvZpn0ASTJJiLZvfq02m-28">
                    <mxGeometry relative="1" as="geometry"/>
                </mxCell>
            </root>
        </mxGraphModel>
    </diagram>
</mxfile>